<svg width="64" height="64" viewBox="0 0 64 64" fill="none" xmlns="http://www.w3.org/2000/svg">
<rect width="64" height="64" rx="12" fill="#E05D38"/>
<path d="M34.2 19.0002H24.3333C23.6261 19.0002 22.9478 19.2811 22.4477 19.7812C21.9476 20.2813 21.6667 20.9596 21.6667 21.6669V43.0002C21.6667 43.7074 21.9476 44.3857 22.4477 44.8858C22.9478 45.3859 23.6261 45.6669 24.3333 45.6669H40.3333C41.0406 45.6669 41.7189 45.3859 42.219 44.8858C42.719 44.3857 43 43.7074 43 43.0002V33.1335M19 24.3335H24.3333M19 29.6669H24.3333M19 35.0002H24.3333M19 40.3335H24.3333M44.8373 23.8349C45.3685 23.3037 45.6669 22.5833 45.6669 21.8322C45.6669 21.0811 45.3685 20.3607 44.8373 19.8295C44.3062 19.2984 43.5858 19 42.8347 19C42.0835 19 41.3631 19.2984 40.832 19.8295L34.152 26.5122C33.835 26.829 33.603 27.2206 33.4773 27.6509L32.3613 31.4775C32.3279 31.5923 32.3259 31.7139 32.3555 31.8297C32.3852 31.9454 32.4454 32.0511 32.5299 32.1356C32.6144 32.2201 32.7201 32.2803 32.8359 32.31C32.9517 32.3397 33.0733 32.3377 33.188 32.3042L37.0147 31.1882C37.4449 31.0626 37.8365 30.8305 38.1533 30.5135L44.8373 23.8349Z" stroke="white" stroke-width="2.66667" stroke-linecap="round" stroke-linejoin="round"/>
</svg>
